<?xml version="1.0" encoding="UTF-8" standalone="no"?>
<!-- Created with Inkscape (http://www.inkscape.org/) -->

<svg
   version="1.1"
   id="svg1"
   width="946.27319"
   height="905.44452"
   viewBox="0 0 946.27319 905.44452"
   xml:space="preserve"
   xmlns="http://www.w3.org/2000/svg"
   xmlns:svg="http://www.w3.org/2000/svg"><defs
     id="defs1" /><g
     id="g1"
     transform="translate(-10.726213,-16.251427)"><g
       id="g2740"
       transform="matrix(0.98659391,0,0,0.98977759,820.93456,-233.5049)"
       style="display:inline"><path
         style="fill:#cdfba4"
         d="m -429.91632,1167.0025 c -2.95152,-0.9838 -12.80653,-11.9663 -15.43185,-17.1974 -6.9188,-13.7859 -87.99274,-164.64611 -89.31574,-166.19629 -1.35067,-1.5826 -3.95406,-1.75 -27.21611,-1.75 -19.92735,0 -25.96641,-0.29381 -26.80488,-1.30411 -1.02365,-1.23342 -7.66084,-20.97424 -22.23158,-66.12281 -3.53705,-10.9598 -17.91856,-55.2848 -31.95892,-98.5 l -25.52793,-78.57308 -14.25735,-0.27767 c -14.23547,-0.27725 -14.25882,-0.28157 -15.22206,-2.8151 -0.53512,-1.40747 -0.96473,-14.83883 -0.96473,-30.16131 v -27.62389 l -12.89425,-24.06101 c -7.09183,-13.23356 -34.23733,-63.88602 -60.32332,-112.56102 -26.086,-48.675 -47.95066,-90.0069 -48.58814,-91.84867 -1.24943,-3.60979 -0.39105,-6.47811 2.24091,-7.48809 0.81992,-0.31463 84.41992,-0.65407 185.77778,-0.75431 134.65538,-0.13316 185.38885,0.12274 188.37821,0.95019 2.25016,0.62285 4.80634,1.92267 5.6804,2.88849 4.31576,4.76887 4.22841,2.32587 4.22841,118.25239 v 110.5 l 13,0.5 13,0.5 v 31.5 31.5 l -13,0.5 -13,0.5 -0.0317,201 c -0.0174,110.54999 0.22,202.79999 0.52767,204.99999 0.30768,2.2 0.99695,3.918 1.53173,3.8178 0.53478,-0.1003 11.71532,-39.9253 24.84565,-88.5 l 23.87333,-88.31779 0.62667,-25 c 0.34467,-13.75 0.99073,-25.5625 1.43569,-26.25 0.48189,-0.74455 2.98188,-1.25 6.18262,-1.25 4.25281,0 5.48212,-0.365 5.89395,-1.75 0.28619,-0.9625 4.25402,-15.475 8.81738,-32.25 l 8.29704,-30.5 0.28083,-58.25 0.28083,-58.25 h -14.49565 c -13.30796,0 -14.58046,-0.15848 -15.53083,-1.93426 -1.55132,-2.89868 -1.39859,-59.30233 0.16482,-60.86574 0.89094,-0.89094 10.92022,-1.2 38.94098,-1.2 20.75754,0 37.96286,-0.359 38.23404,-0.79778 0.27118,-0.43878 13.37055,-49.15128 29.10971,-108.25 18.34798,-68.89453 29.65633,-109.60523 31.514,-113.45222 6.27228,-12.98909 -6.30162,-6.11991 196.002117,-107.07674 100.845226,-50.32539 184.007133,-91.25044 184.804243,-90.94456 1.66856,0.64029 1.08481,8.88606 -1.21937,17.22431 -3.70553,13.40939 -48.2229,179.60185 -51.108098,190.79699 -1.842689,7.15 -18.044269,67.675 -36.003511,134.5 -29.346104,109.19467 -32.70828,122.48747 -33.197338,131.25 -0.299293,5.3625 -0.847998,9.75 -1.219343,9.75 -2.977804,0 -4.7941276,5.37698 -16.7209205,49.5 l -12.7044625,47 -0.410304,29.5 c -0.225667,16.225 -0.09678,35.4625 0.286419,42.75 l 0.696723,13.25 13.6475557,0.0153 c 7.5061559,0.008 14.2166773,0.37658 14.9122713,0.81811 0.984576,0.62498 1.206079,7.65432 1,31.73469 l -0.264715,30.93189 -34.30654,0.26319 -34.306539,0.2632 -1.422944,3.40558 c -1.091774,2.61299 -30.783566,112.43783 -45.650904,168.85483 -1.1286,4.2827 -2.79158,8.7 -3.6955,9.8163 -1.6391,2.0242 -2.05952,2.0295 -157.13053,1.9733 -85.51788,-0.031 -157.99527,0.303 -161.06089,0.7423 -3.06562,0.4393 -6.21337,0.5856 -6.995,0.325 z"
         id="path2746" /><path
         style="fill:#a9f09a"
         d="m -432.67888,1163.2069 c -1.70553,-1.5665 -4.43646,-3.8702 -6.06873,-5.1195 -1.9203,-1.4696 -6.15741,-8.3522 -12.00482,-19.5 -4.97038,-9.4757 -25.82327,-48.5036 -46.33978,-86.7286 l -37.30273,-69.49999 -26.97626,-0.54112 c -14.83695,-0.29762 -27.06639,-0.63512 -27.17654,-0.75 -0.25575,-0.26676 -17.98822,-54.58058 -52.29718,-160.18419 -14.91591,-45.91141 -27.35417,-83.71141 -27.64059,-84 -0.28641,-0.28858 -6.89752,-0.74969 -14.69136,-1.02469 l -14.1706,-0.5 -0.5,-29.5 -0.5,-29.5 -8.60894,-16 c -85.3175,-158.56544 -113.1897,-211.32696 -113.28537,-214.44698 -0.0835,-2.72227 0.41991,-3.71963 2.39431,-4.74382 2.02685,-1.0514 37.61568,-1.25069 188.04416,-1.05302 175.34613,0.23042 185.69212,0.34077 188.23607,2.00775 1.48055,0.97016 3.48568,2.97522 4.45584,4.45569 1.65453,2.52483 1.78048,9.62494 2.03083,114.48607 l 0.26691,111.79431 h 12.36065 c 9.24878,0 12.64703,0.34507 13.49817,1.37063 0.80757,0.97306 1.06064,10.03767 0.87245,31.25 l -0.26508,29.87937 -11,0.2466 c -6.05,0.13564 -12.0125,0.48171 -13.25,0.76906 l -2.25,0.52244 v 203.33173 c 0,145.05446 0.31465,204.23436 1.09782,206.48096 0.60381,1.7321 1.61631,3.1485 2.25,3.1476 0.97564,0 12.33384,-41.3349 45.47804,-165.49839 3.41766,-12.8031 3.47934,-13.3938 4.07218,-39 l 0.60196,-26 5.82589,-0.62589 c 3.20424,-0.34424 6.26836,-1.06837 6.80917,-1.60917 0.5408,-0.54081 4.42844,-13.53416 8.63918,-28.87411 l 7.6559,-27.89083 0.0349,-62 0.0349,-62 -14.5,-0.5 -14.5,-0.5 -0.26494,-30.43175 c -0.20615,-23.68018 0.0157,-30.60989 1,-31.23469 0.69572,-0.44161 18.13994,-0.81672 38.76494,-0.83356 20.625,-0.0168 37.97977,-0.36123 38.56616,-0.76531 0.58638,-0.40408 14.01927,-49.32672 29.85086,-108.71699 16.61367,-62.32411 29.83471,-110.05437 31.26798,-112.88279 4.66659,-9.20907 10.32693,-14.03002 24.71094,-21.04649 7.20723,-3.51566 89.51057,-44.46128 182.896306,-90.99026 93.385737,-46.52899 170.060384,-84.59816 170.388094,-84.59816 0.97372,0 -0.59438,12.41104 -2.22995,17.64934 -0.83299,2.66786 -12.74872,46.92566 -26.47941,98.35066 -13.73068,51.425 -25.838527,96.65 -26.906324,100.5 -1.067796,3.85 -15.964533,59.425 -33.10386,123.5 -29.519061,110.35636 -31.18654,117.05372 -31.619915,127 -0.599833,13.76663 -0.821511,14.62225 -4.084856,15.76657 -2.6775367,0.93889 -3.0975405,2.23045 -14.7473687,45.34992 l -11.9913403,44.38351 -0.3216,45.59579 -0.3216,45.59579 9.2165653,0.65421 c 5.0691107,0.35982 11.7992889,0.65421 14.9559515,0.65421 4.3110792,0 5.8904422,0.39365 6.3463752,1.58179 0.333844,0.86998 0.606989,14.50498 0.606989,30.3 0,21.00305 -0.322381,29.04059 -1.2,29.91821 -0.886638,0.88664 -10.1477371,1.2 -35.464816,1.2 -31.790428,0 -34.333399,0.12815 -35.214537,1.77457 -0.522347,0.97601 -10.921695,39.11352 -23.109663,84.75002 -12.187968,45.6365 -22.805971,85.3103 -23.595571,88.1641 -0.7896,2.8538 -2.13822,5.8913 -2.99695,6.75 -1.4019,1.4019 -17.67388,1.5613 -159.36489,1.5613 -86.79197,0 -159.14917,0.2691 -160.7938,0.5981 -2.38361,0.4767 -3.61929,0.02 -6.09118,-2.25 z"
         id="path2745" /><path
         style="fill:#4cd491"
         d="m -439.85507,1156.1088 c -1.18784,-1.5125 -22.58385,-40.938 -47.5467,-87.6122 -24.96284,-46.6741 -45.89928,-85.47939 -46.52541,-86.23383 -0.90176,-1.08656 -6.67006,-1.42703 -27.74866,-1.63783 l -26.61024,-0.26613 -39.64558,-122 -39.64558,-122 -14.38512,-0.5 -14.38511,-0.5 -0.5,-29.5 -0.5,-29.5 -8.11339,-15 c -50.75955,-93.84401 -113.65469,-212.37714 -114.07973,-214.99635 -0.43028,-2.65147 -0.12458,-3.53085 1.53645,-4.41981 1.50289,-0.80432 53.22094,-1.03738 187.90927,-0.8468 175.04502,0.24769 185.99074,0.36458 188.50635,2.01296 5.48277,3.59266 5.2035,-2.15952 5.74105,118.25 l 0.5,112 13,0.5 13,0.5 v 30.5 30.5 l -13,0.5 -13,0.5 V 940.8913 c 0,197.8016 0.0617,204.6693 1.87395,208.6881 2.39246,5.3054 1.61433,9.2794 -1.81695,9.2794 -1.43328,0 -3.27744,-1.111 -4.5646,-2.75 z m 59.2576,-174.91227 c -0.96075,-0.38767 -1.25,-7.3989 -1.25,-30.29861 0,-22.61833 0.30106,-30.04276 1.25,-30.82618 0.6875,-0.56757 7.38417,-1.35557 14.8815,-1.7511 l 13.63151,-0.71916 0.687,-62.12133 c 0.37786,-34.16674 0.54368,-74.94634 0.3685,-90.62134 l -0.31851,-28.5 -13.93298,-0.27941 c -8.18784,-0.1642 -14.47604,-0.73011 -15.25,-1.37245 -1.03392,-0.85807 -1.31373,-7.24676 -1.30171,-29.72058 0.008,-15.74516 0.35536,-29.16237 0.77098,-29.81602 0.57103,-0.89807 20.90897,-1.26459 83.23469,-1.5 76.11386,-0.2875 83.00864,-0.17558 89.34183,1.45023 34.73334,8.9165 59.13614,33.11644 68.30603,67.73823 2.36766,8.93934 2.38318,30.89875 0.0285,40.32891 -2.48738,9.96157 -7.32657,20.94918 -12.88981,29.26692 l -4.88291,7.30056 5.10617,6.3018 c 8.87672,10.95524 14.73676,22.90043 18.55573,37.82427 2.77286,10.83587 2.56105,34.29284 -0.41067,45.47754 -2.93661,11.05259 -11.91951,28.48075 -19.19542,37.24194 -15.59149,18.77429 -38.37922,31.23289 -62.48043,34.15954 -8.99832,1.09268 -161.6186,1.49803 -164.25,0.43624 z m 167.29014,-66.49822 c 5.30051,-2.79795 12.26416,-9.6266 14.78187,-14.49532 0.82041,-1.58649 1.96388,-5.43903 2.54104,-8.56121 2.74387,-14.84295 -4.9419,-29.68602 -18.69338,-36.10143 -4.46588,-2.08344 -6.16442,-2.19162 -38.91967,-2.47885 l -34.25,-0.30033 v 32.59706 32.59705 l 34.75,-0.29823 34.75,-0.29824 z m -2.9204,-128.04034 c 9.39671,-4.95709 14.33633,-13.15715 14.33633,-23.79916 0,-10.71526 -4.89007,-18.79493 -14.17589,-23.42225 l -5.17287,-2.57775 h -33.30366 -33.30365 v 25.83333 c 0,14.20834 0.33195,26.16529 0.73766,26.571 0.40572,0.40572 15.36822,0.59322 33.25,0.41667 l 32.51234,-0.321 z m 107.63026,194.07026 c -0.94357,-0.95823 -1.25,-8.56608 -1.25,-31.03424 0,-28.40414 0.0884,-29.81213 1.93426,-30.8 1.06384,-0.56935 8.038838,-1.03518 15.499995,-1.03518 h 13.565742 v -90.5 -90.5 h -13.565742 c -7.461157,0 -14.436155,-0.46583 -15.499995,-1.03518 -1.84584,-0.98786 -1.93426,-2.39586 -1.93426,-30.8 0,-21.81708 0.32042,-30.08524 1.2,-30.96482 0.90674,-0.90674 15.90612,-1.2 61.377552,-1.2 53.0474674,0 60.329464,0.18304 61.459656,1.54484 1.626247,1.9595 0.644637,59.17331 -1.044204,60.86215 -0.594849,0.59485 -7.0660057,1.2178 -14.8794104,1.43238 l -13.8267536,0.37972 -0.736661,88.809 c -0.405164,48.84495 -0.443149,89.73378 -0.08441,90.86406 0.613572,1.9332 1.523419,2.07145 15.34324,2.33146 l 14.69099,0.27639 0.265165,29.93484 c 0.145841,16.46415 -0.07916,30.24868 -0.5,30.63227 -0.420841,0.38359 -27.765165,1.00665 -60.765165,1.38458 -47.889486,0.54846 -60.252309,0.43093 -61.249999,-0.58227 z"
         id="path2744" /><path
         style="fill:#23cb78"
         d="m -438.50673,1155.6088 c -1.10434,-1.2375 -22.60551,-40.725 -47.78039,-87.75 -25.17488,-47.025 -46.28728,-85.8306 -46.91643,-86.23468 -0.62916,-0.40407 -12.90132,-0.74157 -27.27148,-0.75 -19.68019,-0.0115 -26.37733,-0.32377 -27.13974,-1.26531 -0.5567,-0.6875 -18.60415,-55.41967 -40.10544,-121.62705 -21.50129,-66.20738 -39.60601,-120.99488 -40.23271,-121.75 -0.86533,-1.04267 -4.46219,-1.37295 -14.95187,-1.37295 h -13.81242 l -0.31564,-30.75 -0.31564,-30.75 -51.34606,-95.5 c -28.24033,-52.525 -55.37657,-103.00969 -60.30276,-112.18819 -10.21656,-19.03555 -10.93247,-21.71165 -6.14994,-22.98868 1.76012,-0.46998 85.70499,-0.73495 186.54416,-0.58882 172.66923,0.25022 183.49944,0.36758 186.0146,2.01569 5.48199,3.59219 5.20348,-2.12003 5.74102,117.75 l 0.5,111.5 11.5,0.24595 c 6.325,0.13526 12.51918,0.48301 13.76484,0.77277 l 2.26485,0.52684 -0.26485,29.72722 -0.26484,29.72722 -12.5,0.5 c -6.875,0.275 -13.0625,0.86406 -13.75,1.30902 -0.99325,0.64284 -1.25,42.53223 -1.25,203.93439 0,184.26788 0.15051,203.66178 1.6213,208.90368 2.3053,8.216 0.82243,11.2007 -3.28056,6.6029 z m 57.35444,-175.46297 c -0.25774,-0.43286 -0.22948,-14.17452 0.0628,-30.53702 l 0.53139,-29.75 3.60532,-0.12722 c 1.98292,-0.07 8.55532,-0.40747 14.60532,-0.75 l 11,-0.62278 0.25532,-90.93769 c 0.2024,-72.08909 -0.005,-91.10289 -1,-91.73469 -0.69043,-0.43835 -7.44942,-0.80388 -15.01999,-0.81231 l -13.76466,-0.0153 0.26466,-30.25 0.26467,-30.25 81,-0.2726 c 89.88161,-0.30249 88.73339,-0.37082 105.17484,6.25891 23.91798,9.64451 43.13137,30.31861 51.56801,55.4885 3.10736,9.27052 3.19255,9.99308 3.18608,27.02519 -0.006,16.52756 -0.16377,17.97233 -2.83437,26 -3.34717,10.06141 -6.42277,16.42761 -11.71006,24.23869 -2.13648,3.15628 -3.8845,6.11349 -3.8845,6.57157 0,0.45809 2.48129,3.94667 5.51399,7.7524 17.85042,22.40051 24.29675,53.97543 16.90663,82.81078 -3.45664,13.48739 -13.61643,31.31397 -23.85161,41.85055 -10.83775,11.15689 -27.50479,21.08345 -43.56901,25.94885 l -7.5,2.27153 -85.16811,0.31484 c -46.84245,0.17316 -85.37897,-0.0393 -85.63671,-0.47219 z m 167.85788,-65.28702 c 24.55529,-12.55597 24.47948,-46.96495 -0.13015,-59.07709 l -4.92291,-2.42291 h -35 -35 l -0.26459,31.4908 c -0.14552,17.31994 -0.0367,32.08467 0.24184,32.81051 0.40889,1.06555 7.0279,1.25991 34.3687,1.0092 l 33.86228,-0.31051 z m -4.05306,-127.35818 c 17.54528,-8.20642 21.7774,-30.12912 8.399,-43.50752 -7.36808,-7.36808 -8.98608,-7.6343 -46.399,-7.6343 h -33 l -0.26766,25.48279 c -0.14722,14.01553 -0.0488,26.05303 0.21861,26.75 0.37897,0.98757 7.72033,1.26505 33.26766,1.25744 32.26158,-0.01 32.86067,-0.0468 37.78139,-2.34841 z m 108.73554,162.60818 0.26446,-30.75 14.499997,-0.5 14.5,-0.5 v -91 -91 l -14.5,-0.5 -14.499997,-0.5 -0.26446,-30.75 -0.26445,-30.75 h 61.514455 61.514452 v 29.94098 c 0,22.85465 -0.295846,30.13246 -1.25,30.75 -0.6875,0.44496 -7.3250001,1.03402 -14.7500001,1.30902 l -13.4999999,0.5 -0.868835,90.33117 c -0.545563,56.72113 -0.516594,90.6834 0.07786,91.27785 0.52068,0.52068 7.4366562,1.27166 15.36883484,1.66884 l 14.42214316,0.72214 0.265547,28.8788 c 0.188249,20.47249 -0.06571,29.27795 -0.872445,30.25 -0.94105,1.1339 -11.5894756,1.3712 -61.529999,1.3712 h -60.392013 z"
         id="path2743" /><path
         style="fill:#1ba460"
         d="m -559.98841,981.12734 c -19.61281,-0.22144 -26.90444,-0.62629 -27.63974,-1.53466 -0.54934,-0.67863 -18.59077,-55.40354 -40.09206,-121.61092 -21.50129,-66.20738 -39.60601,-120.99488 -40.23271,-121.75 -0.8655,-1.04287 -4.4657,-1.37295 -14.97493,-1.37295 h -13.83548 l -0.29207,-30.25 c -0.16064,-16.6375 -0.0411,-30.59099 0.26569,-31.00776 0.30676,-0.41677 28.20676,-0.64177 62,-0.5 l 61.44224,0.25776 v 31.5 31.5 l -13.84592,0.27884 c -10.3578,0.2086 -13.74421,0.58649 -13.44217,1.5 0.22206,0.67164 10.92767,33.73366 23.79023,73.47116 12.86257,39.7375 23.65516,72.25 23.98355,72.25 0.32839,0 11.10205,-32.5125 23.94148,-72.25 12.83942,-39.7375 23.55146,-72.79952 23.80453,-73.47116 0.34548,-0.91687 -2.98996,-1.29063 -13.38578,-1.5 l -13.84592,-0.27884 v -31.5 -31.5 l 59,0.0697 c 32.45,0.0383 60.24418,0.3861 61.76484,0.77278 l 2.76485,0.70306 -0.26485,29.72722 -0.26484,29.72722 -12.70427,0.5 c -8.3453,0.32845 -13.13892,0.93612 -13.97107,1.77107 -0.69674,0.69909 -19.06766,56.04909 -40.82427,123 l -39.55747,121.72893 -8.47146,0.0347 c -4.65931,0.0191 -20.45989,-0.1007 -35.1124,-0.26613 z m 178.83612,-0.98151 c -0.25774,-0.43286 -0.22948,-14.17452 0.0628,-30.53702 l 0.53139,-29.75 3.60532,-0.12722 c 1.98292,-0.07 8.55532,-0.40747 14.60532,-0.75 l 11,-0.62278 0.25532,-90.93769 c 0.2024,-72.08909 -0.005,-91.10289 -1,-91.73469 -0.69043,-0.43835 -7.44942,-0.80388 -15.01999,-0.81231 l -13.76466,-0.0153 0.26466,-30.25 0.26467,-30.25 81,-0.2726 c 89.88161,-0.30249 88.73339,-0.37082 105.17484,6.25891 23.91798,9.64451 43.13137,30.31861 51.56801,55.4885 3.10736,9.27052 3.19255,9.99308 3.18608,27.02519 -0.006,16.52756 -0.16377,17.97233 -2.83437,26 -3.34717,10.06141 -6.42277,16.42761 -11.71006,24.23869 -2.13648,3.15628 -3.8845,6.11349 -3.8845,6.57157 0,0.45809 2.48129,3.94667 5.51399,7.7524 17.85042,22.40051 24.29675,53.97543 16.90663,82.81078 -3.45664,13.48739 -13.61643,31.31397 -23.85161,41.85055 -10.83775,11.15689 -27.50479,21.08345 -43.56901,25.94885 l -7.5,2.27153 -85.16811,0.31484 c -46.84245,0.17316 -85.37897,-0.0393 -85.63671,-0.47219 z m 167.85788,-65.28702 c 24.55529,-12.55597 24.47948,-46.96495 -0.13015,-59.07709 l -4.92291,-2.42291 h -35 -35 l -0.26459,31.4908 c -0.14552,17.31994 -0.0367,32.08467 0.24184,32.81051 0.40889,1.06555 7.0279,1.25991 34.3687,1.0092 l 33.86228,-0.31051 z m -4.05306,-127.35818 c 17.54528,-8.20642 21.7774,-30.12912 8.399,-43.50752 -7.36808,-7.36808 -8.98608,-7.6343 -46.399,-7.6343 h -33 l -0.26766,25.48279 c -0.14722,14.01553 -0.0488,26.05303 0.21861,26.75 0.37897,0.98757 7.72033,1.26505 33.26766,1.25744 32.26158,-0.01 32.86067,-0.0468 37.78139,-2.34841 z m 108.73554,162.60818 0.26446,-30.75 14.499997,-0.5 14.5,-0.5 v -91 -91 l -14.5,-0.5 -14.499997,-0.5 -0.26446,-30.75 -0.26445,-30.75 h 61.514455 61.514452 v 29.94098 c 0,22.85465 -0.295846,30.13246 -1.25,30.75 -0.6875,0.44496 -7.3250001,1.03402 -14.7500001,1.30902 l -13.4999999,0.5 -0.868835,90.33117 c -0.545563,56.72113 -0.516594,90.6834 0.07786,91.27785 0.52068,0.52068 7.4366562,1.27166 15.36883484,1.66884 l 14.42214316,0.72214 0.265547,28.8788 c 0.188249,20.47249 -0.06571,29.27795 -0.872445,30.25 -0.94105,1.1339 -11.5894756,1.3712 -61.529999,1.3712 h -60.392013 z"
         id="path2742" /><path
         style="fill:#020402"
         d="m -587.35727,978.84296 c -0.70642,-1.14301 -7.79296,-22.82054 -49.52122,-151.48415 -16.05387,-49.5 -29.63419,-90.55009 -30.17848,-91.22243 -0.67069,-0.82845 -5.38899,-1.31188 -14.64007,-1.5 l -13.65043,-0.27757 -0.5,-29.33494 c -0.275,-16.13421 -0.3125,-29.52171 -0.0833,-29.75 0.22917,-0.22828 27.56667,-0.41506 60.75,-0.41506 h 60.33334 v 30 30 h -13.53139 c -10.29177,0 -13.65277,0.31633 -14.03839,1.32125 -0.48273,1.25795 47.63799,151.08029 48.94432,152.38663 0.344,0.344 0.88275,0.36816 1.19722,0.0537 1.19974,-1.19974 49.38086,-151.32396 48.94732,-152.51157 -0.33436,-0.91593 -4.07263,-1.25 -13.9877,-1.25 h -13.53138 v -30 -30 h 60.51488 60.51488 l -0.26488,29.75 -0.26488,29.75 -13.48063,0.28063 c -7.41435,0.15435 -13.80042,0.60435 -14.19127,1 -0.39085,0.39565 -13.13851,38.96937 -28.32813,85.71937 -15.18963,46.75 -33.01015,101.5375 -39.60117,121.75 l -11.98365,36.75 h -34.39856 c -22.21152,0 -34.62099,-0.3599 -35.02639,-1.01585 z m 207.00729,-0.1966 c -0.2577,-0.70815 -0.13756,-14.11255 0.26698,-29.78755 l 0.73553,-28.5 14.5,-0.5 14.5,-0.5 v -92 -92 l -14.5,-0.5 -14.5,-0.5 -0.26494,-29.78775 -0.26494,-29.78775 83.76494,0.299 83.76494,0.299 8.79658,2.74787 c 16.75647,5.23437 28.91498,12.78945 40.29875,25.04089 11.14667,11.99628 18.81639,26.87362 21.9695,42.61533 2.25268,11.24637 1.53826,30.3899 -1.53082,41.01994 -2.36956,8.20715 -7.28047,18.57271 -12.58654,26.56664 -1.89611,2.85661 -3.44747,5.71612 -3.44747,6.35446 0,0.63835 1.93867,3.54079 4.30815,6.44988 13.96498,17.14522 20.69185,36.3853 20.69185,59.18249 0,24.01331 -7.13747,43.50526 -22.70179,61.99709 -11.06878,13.15071 -27.04194,23.3214 -45.83405,29.1842 l -8.96416,2.79666 -84.26698,0.29857 c -68.02675,0.24104 -84.35728,0.0504 -84.73553,-0.98897 z m 166.61199,-62.04235 c 20.90478,-10.26628 26.43163,-36.80464 11.19436,-53.75215 -5.66331,-6.29896 -12.16268,-9.69179 -21.01885,-10.97235 -9.23231,-1.33495 -61.85142,-1.32311 -64.35073,0.0145 -1.85199,0.99116 -1.93426,2.43022 -1.93426,33.83334 0,18.03898 0.32604,33.12419 0.72453,33.52268 0.39849,0.39849 16.26099,0.58599 35.25,0.41666 l 34.52547,-0.30786 z m -0.94344,-128.98815 c 16.90819,-9.93955 19.86831,-30.85313 6.289,-44.43245 -8.13189,-8.13188 -9.76446,-8.4041 -48.50949,-8.08871 l -32.44555,0.26411 -0.26706,26.48435 c -0.14689,14.56639 -0.0402,27.07562 0.23714,27.79829 0.40615,1.0584 7.26523,1.25593 35.26706,1.01565 l 34.76286,-0.29829 z m 106.83396,162.27749 v -29.98107 l 14.749997,-0.27674 14.75,-0.27673 v -92 -92 l -14.75,-0.27673 -14.749997,-0.27674 v -29.97326 -29.97327 h 60.514877 60.514881 l -0.264881,29.75 -0.26488,29.75 -14.5000001,0.5 -14.4999999,0.5 -0.856789,89.75645 c -0.471234,49.36605 -0.578172,90.86655 -0.23764,92.22334 0.619059,2.46653 0.621304,2.46693 15.3567891,2.74355 l 14.7376399,0.27666 v 29.5 29.5 l -60.25,0.25781 -60.249997,0.2578 z"
         id="path2741" /></g></g></svg>
